<svg width="206" height="59" viewBox="0 0 206 59" fill="none" xmlns="http://www.w3.org/2000/svg">
<path d="M203.956 52.1958C203.956 55.34 201.356 57.8869 198.14 57.8869H7.81796C4.60368 57.8869 1.99463 55.34 1.99463 52.1958V6.81174C1.99463 3.66904 4.60368 1.11328 7.81796 1.11328H198.139C201.356 1.11328 203.955 3.66904 203.955 6.81174L203.956 52.1958Z" fill="#F8F8F8"/>
<path d="M197.527 1.18185C201.029 1.18185 203.878 3.96038 203.878 7.37501V51.625C203.878 55.0396 201.029 57.8182 197.527 57.8182H8.42397C4.92179 57.8182 2.07201 55.0396 2.07201 51.625V7.37501C2.07201 3.96038 4.92179 1.18185 8.42397 1.18185H197.527ZM197.527 5.4802e-06H8.42397C4.2656 5.4802e-06 0.859863 3.3206 0.859863 7.37501V51.625C0.859863 55.6794 4.2656 59 8.42397 59H197.527C201.685 59 205.091 55.6794 205.091 51.625V7.37501C205.091 3.3206 201.685 5.4802e-06 197.527 5.4802e-06Z" fill="#E5E8E9"/>
<path d="M46.4383 29.1815C46.3944 24.4276 50.4306 22.1148 50.6152 22.0071C48.3293 18.7577 44.7863 18.3137 43.5413 18.2783C40.5655 17.973 37.6791 20.0144 36.1632 20.0144C34.6171 20.0144 32.2829 18.3078 29.767 18.3579C26.5296 18.4066 23.5009 20.2341 21.8399 23.072C18.4118 28.8585 20.9685 37.3618 24.2528 42.0391C25.8957 44.3297 27.8155 46.8874 30.3283 46.7974C32.7866 46.6986 33.7049 45.2693 36.6715 45.2693C39.611 45.2693 40.4733 46.7974 43.036 46.7399C45.6743 46.6986 47.3354 44.4389 48.9209 42.1276C50.8194 39.5021 51.5819 36.9164 51.6122 36.7836C51.5501 36.763 46.4882 34.8794 46.4383 29.1815Z" fill="#161D1F"/>
<path d="M41.5973 15.2014C42.9195 13.5893 43.8242 11.3959 43.573 9.17017C41.6593 9.25277 39.266 10.4608 37.8879 12.0376C36.6685 13.427 35.5793 15.7044 35.8607 17.8461C38.0104 18.0025 40.2176 16.7885 41.5973 15.2014Z" fill="#161D1F"/>
<path d="M82.0151 46.4684H78.5795L76.6975 40.7026H70.1561L68.3634 46.4684H65.0186L71.4995 26.8391H75.5024L82.0151 46.4684ZM76.1302 38.2836L74.4283 33.158C74.2483 32.6344 73.9109 31.4013 73.4132 29.4602H73.3527C73.1545 30.295 72.8353 31.5281 72.3966 33.158L70.7249 38.2836H76.1302Z" fill="#161D1F"/>
<path d="M98.6816 39.2173C98.6816 41.6245 98.0145 43.5272 96.6802 44.924C95.485 46.1675 94.001 46.7884 92.2295 46.7884C90.3172 46.7884 88.9436 46.1188 88.107 44.7795H88.0465V52.2356H84.8212V36.9738C84.8212 35.4604 84.7803 33.9073 84.7017 32.3143H87.5382L87.7182 34.5577H87.7787C88.8544 32.8674 90.4867 32.0237 92.6772 32.0237C94.3898 32.0237 95.8194 32.683 96.9631 34.0031C98.1098 35.3247 98.6816 37.0623 98.6816 39.2173ZM95.3958 39.3323C95.3958 37.9547 95.0781 36.8189 94.4397 35.9251C93.7423 34.9929 92.8058 34.5268 91.6319 34.5268C90.8361 34.5268 90.113 34.7864 89.467 35.2982C88.8196 35.8144 88.396 36.4885 88.1978 37.3234C88.0979 37.7128 88.048 38.0314 88.048 38.2821V40.6421C88.048 41.6717 88.3718 42.5404 89.0193 43.2499C89.6667 43.9594 90.5079 44.3134 91.5426 44.3134C92.7574 44.3134 93.7029 43.8561 94.3792 42.9446C95.0569 42.0316 95.3958 40.828 95.3958 39.3323Z" fill="#161D1F"/>
<path d="M115.379 39.2173C115.379 41.6245 114.712 43.5272 113.376 44.924C112.182 46.1675 110.698 46.7884 108.927 46.7884C107.014 46.7884 105.641 46.1188 104.806 44.7795H104.745V52.2356H101.52V36.9738C101.52 35.4604 101.479 33.9073 101.4 32.3143H104.237L104.417 34.5577H104.477C105.552 32.8674 107.184 32.0237 109.376 32.0237C111.087 32.0237 112.517 32.683 113.663 34.0031C114.806 35.3247 115.379 37.0623 115.379 39.2173ZM112.093 39.3323C112.093 37.9547 111.774 36.8189 111.135 35.9251C110.438 34.9929 109.505 34.5268 108.329 34.5268C107.532 34.5268 106.81 34.7864 106.163 35.2982C105.515 35.8144 105.093 36.4885 104.895 37.3234C104.797 37.7128 104.745 38.0314 104.745 38.2821V40.6421C104.745 41.6717 105.069 42.5404 105.713 43.2499C106.361 43.9579 107.202 44.3134 108.24 44.3134C109.455 44.3134 110.4 43.8561 111.076 42.9446C111.754 42.0316 112.093 40.828 112.093 39.3323Z" fill="#161D1F"/>
<path d="M134.047 40.9637C134.047 42.6334 133.452 43.9919 132.259 45.0406C130.947 46.1867 129.121 46.759 126.775 46.759C124.608 46.759 122.872 46.3519 121.557 45.5362L122.304 42.9152C123.72 43.75 125.274 44.1689 126.967 44.1689C128.182 44.1689 129.127 43.9005 129.807 43.3665C130.483 42.8326 130.82 42.1157 130.82 41.2219C130.82 40.4254 130.542 39.7542 129.984 39.21C129.428 38.6657 128.501 38.1598 127.206 37.6922C123.681 36.4104 121.92 34.5327 121.92 32.0636C121.92 30.4499 122.537 29.1269 123.773 28.0973C125.005 27.0663 126.648 26.5515 128.702 26.5515C130.534 26.5515 132.056 26.8627 133.271 27.4837L132.465 30.0473C131.33 29.4455 130.047 29.1446 128.611 29.1446C127.477 29.1446 126.59 29.4174 125.955 29.9602C125.418 30.4455 125.149 31.037 125.149 31.7376C125.149 32.5135 125.456 33.1551 126.073 33.6595C126.61 34.1256 127.586 34.6301 129.002 35.1744C130.734 35.8543 132.006 36.6494 132.825 37.5609C133.64 38.4695 134.047 39.6067 134.047 40.9637Z" fill="#161D1F"/>
<path d="M144.711 34.6743H141.156V41.5463C141.156 43.2942 141.782 44.1674 143.038 44.1674C143.614 44.1674 144.092 44.1187 144.47 44.0214L144.56 46.4094C143.924 46.641 143.088 46.7575 142.051 46.7575C140.778 46.7575 139.782 46.3784 139.064 45.6218C138.348 44.8636 137.988 43.5922 137.988 41.8059V34.6714H135.87V32.3114H137.988V29.7198L141.156 28.7876V32.3114H144.711V34.6743Z" fill="#161D1F"/>
<path d="M160.751 39.2748C160.751 41.4504 160.113 43.2366 158.839 44.6334C157.503 46.0716 155.73 46.7884 153.52 46.7884C151.39 46.7884 149.694 46.0996 148.429 44.7219C147.165 43.3443 146.532 41.6053 146.532 39.5093C146.532 37.316 147.183 35.5194 148.488 34.1226C149.791 32.7243 151.549 32.0251 153.759 32.0251C155.889 32.0251 157.603 32.714 158.896 34.0931C160.134 35.4309 160.751 37.1581 160.751 39.2748ZM157.405 39.3765C157.405 38.0712 157.119 36.9516 156.54 36.018C155.863 34.8881 154.897 34.3247 153.644 34.3247C152.348 34.3247 151.363 34.8896 150.686 36.018C150.107 36.9531 149.821 38.0903 149.821 39.4355C149.821 40.7409 150.107 41.8604 150.686 42.7926C151.384 43.9225 152.358 44.4859 153.615 44.4859C154.847 44.4859 155.813 43.9107 156.511 42.7631C157.105 41.8118 157.405 40.6804 157.405 39.3765Z" fill="#161D1F"/>
<path d="M171.235 35.0799C170.916 35.0224 170.576 34.9929 170.218 34.9929C169.084 34.9929 168.206 35.4103 167.589 36.2466C167.052 36.9841 166.783 37.9163 166.783 39.0417V46.4684H163.559L163.589 36.7717C163.589 35.1404 163.548 33.655 163.468 32.3157H166.278L166.396 35.0238H166.485C166.825 34.0931 167.362 33.3438 168.098 32.7818C168.816 32.2759 169.592 32.0237 170.429 32.0237C170.727 32.0237 170.996 32.0443 171.235 32.0812V35.0799Z" fill="#161D1F"/>
<path d="M185.66 38.7218C185.66 39.2853 185.622 39.7602 185.542 40.1482H175.866C175.904 41.5465 176.371 42.6158 177.27 43.3533C178.085 44.0127 179.14 44.3431 180.435 44.3431C181.867 44.3431 183.175 44.1203 184.35 43.6734L184.855 45.8564C183.482 46.4405 181.86 46.7311 179.989 46.7311C177.737 46.7311 175.971 46.085 174.685 44.7944C173.402 43.5038 172.759 41.7707 172.759 39.5965C172.759 37.4622 173.356 35.6848 174.553 34.2673C175.806 32.754 177.498 31.9973 179.628 31.9973C181.721 31.9973 183.305 32.754 184.38 34.2673C185.232 35.4695 185.66 36.9563 185.66 38.7218ZM182.585 37.9062C182.606 36.974 182.395 36.1686 181.958 35.4886C181.4 34.614 180.542 34.1774 179.388 34.1774C178.334 34.1774 177.476 34.6036 176.821 35.4591C176.284 36.1391 175.964 36.9548 175.866 37.9047H182.585V37.9062Z" fill="#161D1F"/>
<path d="M75.064 14.7633C75.064 16.4994 74.53 17.8063 73.4634 18.6839C72.4756 19.4937 71.0717 19.8993 69.2532 19.8993C68.3516 19.8993 67.5801 19.8609 66.9341 19.7842V10.2985C67.7767 10.1657 68.6844 10.0979 69.6647 10.0979C71.3969 10.0979 72.7025 10.4652 73.5829 11.1997C74.5693 12.0302 75.064 13.2175 75.064 14.7633ZM73.3923 14.8061C73.3923 13.6807 73.0867 12.8178 72.4756 12.216C71.8644 11.6157 70.9718 11.3148 69.7963 11.3148C69.2971 11.3148 68.872 11.3472 68.5195 11.4151V18.6264C68.7147 18.6559 69.0717 18.6691 69.5906 18.6691C70.8039 18.6691 71.7403 18.3402 72.3999 17.6824C73.0595 17.0245 73.3923 16.0658 73.3923 14.8061Z" fill="#161D1F"/>
<path d="M83.9276 16.2796C83.9276 17.349 83.6144 18.2252 82.9881 18.9125C82.3315 19.619 81.4617 19.9716 80.3755 19.9716C79.3286 19.9716 78.495 19.6338 77.8733 18.9553C77.253 18.2783 76.9429 17.4242 76.9429 16.3947C76.9429 15.3179 77.2621 14.4344 77.9035 13.7485C78.5449 13.0627 79.4073 12.719 80.4935 12.719C81.5403 12.719 82.3815 13.0568 83.0184 13.7338C83.6235 14.3916 83.9276 15.2412 83.9276 16.2796ZM82.2831 16.3298C82.2831 15.6882 82.1409 15.138 81.858 14.6793C81.5252 14.1247 81.0517 13.8474 80.436 13.8474C79.7991 13.8474 79.315 14.1247 78.9822 14.6793C78.6977 15.138 78.5571 15.697 78.5571 16.3578C78.5571 16.9994 78.6993 17.5496 78.9822 18.0083C79.3256 18.5629 79.8036 18.8402 80.4208 18.8402C81.026 18.8402 81.501 18.5585 81.8429 17.9936C82.1364 17.526 82.2831 16.9714 82.2831 16.3298Z" fill="#161D1F"/>
<path d="M95.8125 12.8606L93.5811 19.8137H92.1288L91.2045 16.7944C90.97 16.0407 90.7794 15.2914 90.6311 14.548H90.6024C90.4647 15.312 90.2741 16.0599 90.029 16.7944L89.0472 19.8137H87.5783L85.48 12.8606H87.1093L87.9156 16.1661C88.1108 16.9478 88.2711 17.6927 88.3997 18.3977H88.4285C88.5465 17.8166 88.7416 17.0761 89.0169 16.1808L90.029 12.8621H91.321L92.2907 16.11C92.5252 16.9021 92.7158 17.6647 92.8625 18.3992H92.9064C93.0138 17.6838 93.1757 16.9213 93.3905 16.11L94.2558 12.8621H95.8125V12.8606Z" fill="#161D1F"/>
<path d="M104.031 19.8138H102.446V15.8313C102.446 14.6041 101.968 13.9905 101.009 13.9905C100.538 13.9905 100.158 14.1586 99.8634 14.4964C99.5714 14.8342 99.4232 15.2324 99.4232 15.6882V19.8123H97.8378V14.8475C97.8378 14.2368 97.8181 13.5745 97.7803 12.8577H99.1736L99.2477 13.9448H99.2916C99.4761 13.607 99.7515 13.3282 100.113 13.1055C100.543 12.8459 101.024 12.7146 101.55 12.7146C102.216 12.7146 102.77 12.924 103.21 13.3444C103.757 13.8592 104.031 14.6277 104.031 15.6484V19.8138Z" fill="#161D1F"/>
<path d="M108.404 19.8137H106.82V9.67017H108.404V19.8137Z" fill="#161D1F"/>
<path d="M117.738 16.2796C117.738 17.349 117.424 18.2252 116.798 18.9125C116.142 19.619 115.27 19.9716 114.186 19.9716C113.137 19.9716 112.304 19.6338 111.683 18.9553C111.063 18.2783 110.753 17.4242 110.753 16.3947C110.753 15.3179 111.072 14.4344 111.714 13.7485C112.355 13.0627 113.217 12.719 114.302 12.719C115.35 12.719 116.19 13.0568 116.828 13.7338C117.434 14.3916 117.738 15.2412 117.738 16.2796ZM116.092 16.3298C116.092 15.6882 115.949 15.138 115.667 14.6793C115.335 14.1247 114.86 13.8474 114.246 13.8474C113.608 13.8474 113.124 14.1247 112.792 14.6793C112.508 15.138 112.367 15.697 112.367 16.3578C112.367 16.9994 112.509 17.5496 112.792 18.0083C113.136 18.5629 113.614 18.8402 114.231 18.8402C114.836 18.8402 115.31 18.5585 115.651 17.9936C115.946 17.526 116.092 16.9714 116.092 16.3298Z" fill="#161D1F"/>
<path d="M125.411 19.8137H123.987L123.869 19.0128H123.825C123.338 19.6515 122.644 19.9716 121.742 19.9716C121.069 19.9716 120.524 19.7606 120.114 19.3417C119.742 18.9612 119.556 18.4877 119.556 17.9257C119.556 17.0761 119.919 16.4286 120.65 15.9802C121.379 15.5318 122.405 15.312 123.725 15.3224V15.1926C123.725 14.2766 123.232 13.8193 122.244 13.8193C121.541 13.8193 120.921 13.9919 120.385 14.3341L120.063 13.3193C120.726 12.9196 121.544 12.719 122.509 12.719C124.373 12.719 125.308 13.6777 125.308 15.5952V18.1558C125.308 18.8506 125.343 19.4037 125.411 19.8137ZM123.765 17.4242V16.3519C122.016 16.3224 121.142 16.79 121.142 17.7532C121.142 18.116 121.241 18.3874 121.446 18.5688C121.65 18.7503 121.91 18.8402 122.22 18.8402C122.568 18.8402 122.893 18.7326 123.19 18.5187C123.488 18.3033 123.671 18.0305 123.739 17.6956C123.756 17.6204 123.765 17.529 123.765 17.4242Z" fill="#161D1F"/>
<path d="M134.42 19.8137H133.013L132.938 18.6972H132.895C132.445 19.5468 131.68 19.9716 130.604 19.9716C129.745 19.9716 129.029 19.6426 128.462 18.9848C127.895 18.3269 127.612 17.4729 127.612 16.4242C127.612 15.2988 127.919 14.3872 128.536 13.691C129.134 13.042 129.866 12.7175 130.737 12.7175C131.695 12.7175 132.365 13.0317 132.746 13.6615H132.777V9.67017H134.364V17.9405C134.364 18.6175 134.382 19.2414 134.42 19.8137ZM132.777 16.8814V15.7221C132.777 15.5215 132.761 15.3592 132.733 15.2353C132.643 14.8636 132.451 14.5509 132.159 14.2987C131.864 14.0465 131.509 13.9196 131.099 13.9196C130.507 13.9196 130.044 14.1483 129.704 14.607C129.367 15.0657 129.196 15.6513 129.196 16.3667C129.196 17.054 129.358 17.6116 129.683 18.0408C130.026 18.498 130.489 18.7267 131.069 18.7267C131.589 18.7267 132.005 18.5364 132.321 18.1544C132.627 17.8018 132.777 17.377 132.777 16.8814Z" fill="#161D1F"/>
<path d="M147.979 16.2796C147.979 17.349 147.666 18.2252 147.039 18.9125C146.383 19.619 145.514 19.9716 144.427 19.9716C143.381 19.9716 142.548 19.6338 141.925 18.9553C141.304 18.2783 140.994 17.4242 140.994 16.3947C140.994 15.3179 141.313 14.4344 141.955 13.7485C142.596 13.0627 143.459 12.719 144.546 12.719C145.592 12.719 146.434 13.0568 147.07 13.7338C147.675 14.3916 147.979 15.2412 147.979 16.2796ZM146.336 16.3298C146.336 15.6882 146.194 15.138 145.911 14.6793C145.576 14.1247 145.104 13.8474 144.487 13.8474C143.852 13.8474 143.368 14.1247 143.033 14.6793C142.749 15.138 142.608 15.697 142.608 16.3578C142.608 16.9994 142.751 17.5496 143.033 18.0083C143.377 18.5629 143.855 18.8402 144.472 18.8402C145.077 18.8402 145.554 18.5585 145.896 17.9936C146.188 17.526 146.336 16.9714 146.336 16.3298Z" fill="#161D1F"/>
<path d="M156.504 19.8138H154.92V15.8313C154.92 14.6041 154.442 13.9905 153.481 13.9905C153.011 13.9905 152.631 14.1586 152.338 14.4964C152.044 14.8342 151.897 15.2324 151.897 15.6882V19.8123H150.31V14.8475C150.31 14.2368 150.292 13.5745 150.254 12.8577H151.646L151.72 13.9448H151.764C151.95 13.607 152.226 13.3282 152.586 13.1055C153.017 12.8459 153.496 12.7146 154.024 12.7146C154.688 12.7146 155.242 12.924 155.682 13.3444C156.232 13.8592 156.504 14.6277 156.504 15.6484V19.8138Z" fill="#161D1F"/>
<path d="M167.173 14.0184H165.428V17.3962C165.428 18.2546 165.738 18.6839 166.352 18.6839C166.636 18.6839 166.872 18.6603 167.058 18.6116L167.099 19.7842C166.786 19.8993 166.375 19.9568 165.868 19.9568C165.242 19.9568 164.754 19.7709 164.402 19.3992C164.048 19.0275 163.872 18.4021 163.872 17.5245V14.0184H162.83V12.8606H163.872V11.5862L165.426 11.1289V12.8591H167.172V14.0184H167.173Z" fill="#161D1F"/>
<path d="M175.567 19.8137H173.98V15.8607C173.98 14.6144 173.502 13.9904 172.544 13.9904C171.809 13.9904 171.306 14.3518 171.031 15.0746C170.984 15.2265 170.957 15.4123 170.957 15.6306V19.8123H169.373V9.67017H170.957V13.8606H170.987C171.486 13.0981 172.202 12.7175 173.129 12.7175C173.786 12.7175 174.329 12.927 174.76 13.3473C175.297 13.871 175.567 14.6498 175.567 15.6793V19.8137Z" fill="#161D1F"/>
<path d="M184.225 16.0083C184.225 16.2856 184.203 16.5187 184.166 16.709H179.411C179.432 17.3963 179.659 17.9199 180.099 18.2828C180.501 18.6073 181.02 18.7695 181.656 18.7695C182.359 18.7695 183.001 18.6604 183.579 18.4406L183.827 19.5144C183.15 19.8006 182.355 19.9436 181.433 19.9436C180.329 19.9436 179.459 19.6265 178.83 18.9923C178.197 18.358 177.884 17.5069 177.884 16.439C177.884 15.3903 178.176 14.5171 178.765 13.8209C179.379 13.0775 180.209 12.7058 181.258 12.7058C182.284 12.7058 183.063 13.0775 183.589 13.8209C184.014 14.4109 184.225 15.141 184.225 16.0083ZM182.712 15.6086C182.724 15.1499 182.619 14.7546 182.405 14.4212C182.129 13.992 181.71 13.7767 181.143 13.7767C180.626 13.7767 180.203 13.9861 179.881 14.4065C179.618 14.7413 179.462 15.141 179.411 15.6086H182.712Z" fill="#161D1F"/>
</svg>
