<svg width="205" height="59" viewBox="0 0 205 59" fill="none" xmlns="http://www.w3.org/2000/svg">
<path d="M197.306 59H8.46337C4.31072 59 0.909668 55.6794 0.909668 51.625V7.375C0.909668 3.32059 4.31072 7.56029e-07 8.46337 7.56029e-07H197.306C201.459 7.56029e-07 204.86 3.32059 204.86 7.375V51.625C204.86 55.6794 201.459 59 197.306 59Z" fill="#F8F8F8"/>
<path d="M197.306 1.18184C200.803 1.18184 203.649 3.96037 203.649 7.375V51.625C203.649 55.0396 200.803 57.8182 197.306 57.8182H8.46337C4.96601 57.8182 2.12015 55.0396 2.12015 51.625V7.375C2.12015 3.96037 4.96601 1.18184 8.46337 1.18184H197.306ZM197.306 7.56029e-07H8.46337C4.31072 7.56029e-07 0.909668 3.32059 0.909668 7.375V51.625C0.909668 55.6794 4.31072 59 8.46337 59H197.306C201.459 59 204.86 55.6794 204.86 51.625V7.375C204.86 3.32059 201.459 7.56029e-07 197.306 7.56029e-07Z" fill="#E5E8E9"/>
<path d="M72.5455 15.1096C72.5455 16.3413 72.1678 17.3277 71.4237 18.0633C70.5683 18.9354 69.4541 19.3742 68.0888 19.3742C66.7839 19.3742 65.6697 18.928 64.7557 18.0486C63.8398 17.1562 63.3828 16.061 63.3828 14.7501C63.3828 13.4392 63.8398 12.344 64.7557 11.459C65.6697 10.5722 66.7839 10.126 68.0888 10.126C68.7384 10.126 69.3578 10.2569 69.9489 10.5003C70.5381 10.7455 71.0177 11.0774 71.3652 11.4867L70.5758 12.2647C69.9696 11.5659 69.1444 11.2212 68.0888 11.2212C67.137 11.2212 66.3118 11.5457 65.6112 12.2002C64.9181 12.8566 64.5706 13.7065 64.5706 14.7501C64.5706 15.7937 64.9181 16.651 65.6112 17.3074C66.3118 17.9545 67.137 18.2864 68.0888 18.2864C69.0991 18.2864 69.9489 17.9545 70.6193 17.3C71.0612 16.8667 71.3123 16.2694 71.3784 15.506H68.0888V14.4404H72.4775C72.5303 14.6708 72.5455 14.8939 72.5455 15.1096Z" fill="#161D1F" stroke="#161D1F" stroke-width="0.16" stroke-miterlimit="10"/>
<path d="M79.5077 11.4146H75.3853V14.2171H79.1017V15.2828H75.3853V18.0853H79.5077V19.1712H74.2183V10.3286H79.5077V11.4146Z" fill="#161D1F" stroke="#161D1F" stroke-width="0.16" stroke-miterlimit="10"/>
<path d="M84.4217 19.1712H83.2547V11.4146H80.7261V10.3286H86.9522V11.4146H84.4217V19.1712Z" fill="#161D1F" stroke="#161D1F" stroke-width="0.16" stroke-miterlimit="10"/>
<path d="M91.458 19.1712V10.3286H92.6232V19.1712H91.458Z" fill="#161D1F" stroke="#161D1F" stroke-width="0.16" stroke-miterlimit="10"/>
<path d="M97.7879 19.1712H96.6303V11.4146H94.0923V10.3286H100.326V11.4146H97.7879V19.1712Z" fill="#161D1F" stroke="#161D1F" stroke-width="0.16" stroke-miterlimit="10"/>
<path d="M112.113 18.0338C111.22 18.928 110.113 19.3742 108.793 19.3742C107.466 19.3742 106.359 18.928 105.466 18.0338C104.575 17.1414 104.131 16.0463 104.131 14.7501C104.131 13.4539 104.575 12.3588 105.466 11.4664C106.359 10.5722 107.466 10.126 108.793 10.126C110.106 10.126 111.212 10.5722 112.106 11.4738C113.005 12.3735 113.448 13.4613 113.448 14.7501C113.448 16.0463 113.005 17.1414 112.113 18.0338ZM106.329 17.2926C107.001 17.9545 107.819 18.2864 108.793 18.2864C109.76 18.2864 110.586 17.9545 111.25 17.2926C111.921 16.6307 112.261 15.7808 112.261 14.7501C112.261 13.7194 111.921 12.8695 111.25 12.2076C110.586 11.5457 109.76 11.2138 108.793 11.2138C107.819 11.2138 107.001 11.5457 106.329 12.2076C105.659 12.8695 105.319 13.7194 105.319 14.7501C105.319 15.7808 105.659 16.6307 106.329 17.2926Z" fill="#161D1F" stroke="#161D1F" stroke-width="0.16" stroke-miterlimit="10"/>
<path d="M115.086 19.1712V10.3286H116.502L120.906 17.2058H120.957L120.906 15.5059V10.3286H122.071V19.1712H120.855L116.244 11.9548H116.193L116.244 13.6621V19.1712H115.086Z" fill="#161D1F" stroke="#161D1F" stroke-width="0.16" stroke-miterlimit="10"/>
<path d="M103.844 32.085C100.296 32.085 97.3971 34.7216 97.3971 38.3593C97.3971 41.9675 100.296 44.6317 103.844 44.6317C107.4 44.6317 110.299 41.9675 110.299 38.3593C110.299 34.7216 107.4 32.085 103.844 32.085ZM103.844 42.1611C101.897 42.1611 100.222 40.5921 100.222 38.3593C100.222 36.097 101.897 34.5557 103.844 34.5557C105.791 34.5557 107.474 36.097 107.474 38.3593C107.474 40.5921 105.791 42.1611 103.844 42.1611ZM89.7773 32.085C86.2214 32.085 83.3302 34.7216 83.3302 38.3593C83.3302 41.9675 86.2214 44.6317 89.7773 44.6317C93.3313 44.6317 96.2244 41.9675 96.2244 38.3593C96.2244 34.7216 93.3313 32.085 89.7773 32.085ZM89.7773 42.1611C87.8284 42.1611 86.1477 40.5921 86.1477 38.3593C86.1477 36.097 87.8284 34.5557 89.7773 34.5557C91.7242 34.5557 93.3993 36.097 93.3993 38.3593C93.3993 40.5921 91.7242 42.1611 89.7773 42.1611ZM73.0383 34.0081V36.6741H79.559C79.3683 38.1639 78.8584 39.2591 78.0766 40.0224C77.1248 40.9443 75.6424 41.9675 73.0383 41.9675C69.0254 41.9675 65.883 38.8055 65.883 34.8875C65.883 30.9696 69.0254 27.8075 73.0383 27.8075C75.2081 27.8075 76.7868 28.6354 77.952 29.7084L79.8763 27.8297C78.2466 26.3104 76.0786 25.1433 73.0383 25.1433C67.5354 25.1433 62.9106 29.5148 62.9106 34.8875C62.9106 40.2602 67.5354 44.6317 73.0383 44.6317C76.0125 44.6317 78.2465 43.6804 80.0028 41.8956C81.8025 40.1385 82.3633 37.6679 82.3633 35.673C82.3633 35.0535 82.3104 34.4838 82.216 34.0081H73.0383ZM141.486 36.0749C140.956 34.6718 139.318 32.085 135.983 32.085C132.679 32.085 129.927 34.6276 129.927 38.3593C129.927 41.8735 132.65 44.6317 136.301 44.6317C139.252 44.6317 140.955 42.8747 141.656 41.8514L139.466 40.4262C138.735 41.4697 137.74 42.1611 136.301 42.1611C134.871 42.1611 133.846 41.5213 133.188 40.2602L141.783 36.7884L141.486 36.0749ZM132.724 38.1639C132.65 35.7449 134.648 34.5059 136.08 34.5059C137.201 34.5059 138.153 35.0535 138.47 35.8371L132.724 38.1639ZM125.739 44.2501H128.564V25.8126H125.739V44.2501ZM121.112 33.4826H121.017C120.383 32.7488 119.173 32.085 117.639 32.085C114.421 32.085 111.479 34.8433 111.479 38.3796C111.479 41.8956 114.421 44.6317 117.639 44.6317C119.173 44.6317 120.383 43.9625 121.017 43.2065H121.112V44.1063C121.112 46.505 119.799 47.7938 117.683 47.7938C115.957 47.7938 114.886 46.5769 114.444 45.5536L111.987 46.5548C112.695 48.2178 114.57 50.2644 117.683 50.2644C120.995 50.2644 123.79 48.3617 123.79 43.732V32.4667H121.112V33.4826ZM117.881 42.1611C115.934 42.1611 114.304 40.57 114.304 38.3796C114.304 36.1689 115.934 34.5557 117.881 34.5557C119.799 34.5557 121.312 36.1689 121.312 38.3796C121.312 40.57 119.799 42.1611 117.881 42.1611ZM154.713 25.8126H147.956V44.2501H150.773V37.2641H154.713C157.842 37.2641 160.91 35.0535 160.91 31.5374C160.91 28.0233 157.834 25.8126 154.713 25.8126ZM154.786 34.6995H150.773V28.3773H154.786C156.89 28.3773 158.091 30.0827 158.091 31.5374C158.091 32.9645 156.89 34.6995 154.786 34.6995ZM172.203 32.05C170.168 32.05 168.051 32.9276 167.18 34.8728L169.68 35.8961C170.219 34.8728 171.208 34.5409 172.254 34.5409C173.716 34.5409 175.198 35.3983 175.221 36.912V37.1056C174.711 36.8179 173.62 36.392 172.277 36.392C169.584 36.392 166.84 37.8394 166.84 40.5405C166.84 43.0111 169.046 44.6022 171.525 44.6022C173.421 44.6022 174.468 43.767 175.125 42.7954H175.221V44.2206H177.942V37.148C177.942 33.879 175.442 32.05 172.203 32.05ZM171.863 42.1538C170.942 42.1538 169.658 41.7076 169.658 40.5921C169.658 39.165 171.259 38.6174 172.645 38.6174C173.886 38.6174 174.468 38.8848 175.221 39.2369C175 40.9443 173.495 42.1538 171.863 42.1538ZM187.856 32.4538L184.618 40.4464H184.521L181.173 32.4538H178.135L183.166 43.6232L180.295 49.8385H183.239L190.991 32.4538H187.856ZM162.459 44.2501H165.284V25.8126H162.459V44.2501Z" fill="#161D1F"/>
<path d="M16.6742 11.1197C16.2305 11.5732 15.9736 12.2794 15.9736 13.1939V45.8135C15.9736 46.728 16.2305 47.4342 16.6742 47.8877L16.7838 47.9873L35.5056 29.7157V29.2843L16.7838 11.0127L16.6742 11.1197Z" fill="url(#paint0_linear_133_2020)"/>
<path d="M41.7391 35.8093L35.5054 29.7157V29.2843L41.7466 23.1907L41.8864 23.27L49.2777 27.376C51.387 28.5413 51.387 30.4588 49.2777 31.6314L41.8864 35.73L41.7391 35.8093Z" fill="url(#paint1_linear_133_2020)"/>
<path d="M41.8867 35.7301L35.5057 29.5001L16.6743 47.8878C17.3749 48.6069 18.5174 48.6936 19.8167 47.9745L41.8867 35.7301Z" fill="url(#paint2_linear_133_2020)"/>
<path d="M41.8867 23.27L19.8167 11.0256C18.5174 10.3139 17.3749 10.4006 16.6743 11.1197L35.5057 29.5L41.8867 23.27Z" fill="url(#paint3_linear_133_2020)"/>
<defs>
<linearGradient id="paint0_linear_133_2020" x1="33.8433" y1="46.1532" x2="9.0964" y2="20.8066" gradientUnits="userSpaceOnUse">
<stop stop-color="#00A0FF"/>
<stop offset="0.0066" stop-color="#00A1FF"/>
<stop offset="0.2601" stop-color="#00BEFF"/>
<stop offset="0.5122" stop-color="#00D2FF"/>
<stop offset="0.7604" stop-color="#00DFFF"/>
<stop offset="1" stop-color="#00E3FF"/>
</linearGradient>
<linearGradient id="paint1_linear_133_2020" x1="52.0244" y1="29.4979" x2="15.4692" y2="29.4979" gradientUnits="userSpaceOnUse">
<stop stop-color="#FFE000"/>
<stop offset="0.4087" stop-color="#FFBD00"/>
<stop offset="0.7754" stop-color="#FFA500"/>
<stop offset="1" stop-color="#FF9C00"/>
</linearGradient>
<linearGradient id="paint2_linear_133_2020" x1="38.4169" y1="26.1134" x2="4.85803" y2="-8.25867" gradientUnits="userSpaceOnUse">
<stop stop-color="#FF3A44"/>
<stop offset="1" stop-color="#C31162"/>
</linearGradient>
<linearGradient id="paint3_linear_133_2020" x1="11.9341" y1="58.7401" x2="26.9196" y2="43.3916" gradientUnits="userSpaceOnUse">
<stop stop-color="#32A071"/>
<stop offset="0.0685" stop-color="#2DA771"/>
<stop offset="0.4762" stop-color="#15CF74"/>
<stop offset="0.8009" stop-color="#06E775"/>
<stop offset="1" stop-color="#00F076"/>
</linearGradient>
</defs>
</svg>
