<svg width="122" height="24" viewBox="0 0 122 24" fill="none" xmlns="http://www.w3.org/2000/svg">
<path d="M36.1764 12.6647C36.1278 11.372 36.0772 9.80847 36.0772 8.24498H36.0435C35.6806 9.6171 35.2165 11.148 34.7861 12.4082L33.4296 16.604H31.4613L30.2714 12.455C29.9086 11.1786 29.5436 9.64764 29.263 8.24294H29.2293C29.1807 9.69446 29.1132 11.3536 29.0478 12.6952L28.8326 16.779H26.5015L27.2124 6.02596H30.5689L31.6596 9.61507C32.0224 10.8589 32.3537 12.2005 32.6026 13.4607H32.668C32.9655 12.2168 33.3452 10.7958 33.7271 9.59878L34.9 6.02596H38.2059L38.8008 16.779H36.3536L36.1721 12.6627L36.1764 12.6647Z" fill="#0088B1"/>
<path d="M47.3682 12.2351H43.267V14.788H47.8471V16.7831H40.7544V6.02799H47.615V8.02307H43.267V10.2563H47.3682V12.2351Z" fill="#0088B1"/>
<path d="M49.5686 6.18678C50.4947 6.04224 51.7015 5.94656 52.9588 5.94656C55.0917 5.94656 56.4799 6.32929 57.5389 7.09475C58.6971 7.92535 59.4228 9.24862 59.4228 11.148C59.4228 13.2062 58.6465 14.6252 57.5874 15.5026C56.4145 16.4431 54.6107 16.891 52.4293 16.891C51.1234 16.891 50.1804 16.8116 49.5686 16.7322V6.18678ZM52.0812 14.9468C52.2964 14.9957 52.6593 14.9957 52.9567 14.9957C55.2541 15.012 56.7604 13.7986 56.7604 11.2295C56.7604 8.99618 55.4039 7.81542 53.2225 7.81542C52.6761 7.81542 52.2964 7.86224 52.0812 7.9111V14.9468Z" fill="#0088B1"/>
<path d="M63.6042 6.02799V16.7811H61.0916V6.02799H63.6042Z" fill="#0088B1"/>
<path d="M68.4161 16.7811L64.8445 6.02799H67.606L68.9625 10.576C69.3423 11.8687 69.6904 13.08 69.9541 14.4216H70.0047C70.2853 13.1288 70.6334 11.8524 71.0131 10.6248L72.435 6.03003H75.1143L71.3612 16.7831H68.4182L68.4161 16.7811Z" fill="#0088B1"/>
<path d="M82.9329 12.2351H78.8317V14.788H83.4118V16.7831H76.3191V6.02799H83.1797V8.02307H78.8317V10.2563H82.9329V12.2351Z" fill="#0088B1"/>
<path d="M85.131 6.17253C85.9411 6.04428 87.131 5.9486 88.4875 5.9486C90.1415 5.9486 91.2976 6.18882 92.0908 6.79345C92.768 7.30444 93.133 8.0699 93.133 9.05929C93.133 10.4151 92.1245 11.3577 91.1646 11.6916V11.7404C91.941 12.0438 92.3714 12.7461 92.652 13.7355C93 14.9631 93.3292 16.3678 93.5443 16.7831H90.9642C90.7997 16.4635 90.517 15.6023 90.2047 14.2791C89.8904 12.9232 89.4115 12.571 88.3693 12.5568H87.6246V16.7851H85.1289V6.17253H85.131ZM87.6289 10.7979H88.6204C89.8777 10.7979 90.6204 10.1912 90.6204 9.25066C90.6204 8.31012 89.9263 7.76656 88.7681 7.76656C88.1563 7.76656 87.8082 7.79914 87.6267 7.84596V10.7979H87.6289Z" fill="#0088B1"/>
<path d="M95.0192 14.277C95.6795 14.6129 96.7385 14.9468 97.8123 14.9468C98.9705 14.9468 99.5823 14.4847 99.5823 13.7823C99.5823 13.08 99.0528 12.7298 97.7132 12.282C95.8609 11.6448 94.6373 10.6554 94.6373 9.09187C94.6373 7.25761 96.2406 5.8692 98.8524 5.8692C100.125 5.8692 101.034 6.10943 101.696 6.41072L101.133 8.35694C100.703 8.14929 99.8925 7.84596 98.8186 7.84596C97.7448 7.84596 97.1984 8.34066 97.1984 8.88218C97.1984 9.56824 97.8102 9.87158 99.2659 10.3988C101.234 11.1012 102.143 12.0906 102.143 13.6052C102.143 15.4089 100.722 16.9399 97.6626 16.9399C96.3883 16.9399 95.1331 16.604 94.5044 16.2701L95.017 14.275L95.0192 14.277Z" fill="#0088B1"/>
<path d="M106.46 14.0205L105.666 16.7811H103.072L106.462 6.02799H109.768L113.24 16.7811H110.512L109.652 14.0205H106.462H106.46ZM109.287 12.2026L108.593 9.92043C108.394 9.28323 108.196 8.4852 108.031 7.84596H107.998C107.833 8.48316 107.666 9.29748 107.485 9.92043L106.825 12.2026H109.289H109.287Z" fill="#0088B1"/>
<path d="M114.725 6.02799H117.238V14.7392H121.668V16.7811H114.723V6.02799H114.725Z" fill="#0088B1"/>
<path d="M39.5454 22.4609H38.7248L39.421 19.2586H38.2522L38.3914 18.6153H41.5306L41.3914 19.2586H40.2395L39.5454 22.4609Z" fill="#0088B1"/>
<path d="M41.6656 19.676H42.3935L42.2774 20.2155C42.5496 19.8124 42.8428 19.6088 43.1614 19.6088C43.2732 19.6088 43.3934 19.6353 43.5221 19.6902L43.2225 20.3071C43.1529 20.2826 43.077 20.2704 42.9968 20.2704C42.8618 20.2704 42.7268 20.3193 42.5875 20.417C42.4483 20.5147 42.3407 20.645 42.2627 20.8099C42.1846 20.9728 42.1086 21.2334 42.0327 21.5876L41.8428 22.4609H41.0623L41.6656 19.676Z" fill="#0088B1"/>
<path d="M43.8703 19.676H44.6509L44.2944 21.325C44.2501 21.5224 44.229 21.6466 44.229 21.6955C44.229 21.7769 44.2606 21.8441 44.3218 21.9031C44.383 21.9622 44.4631 21.9907 44.5581 21.9907C44.6277 21.9907 44.6952 21.9785 44.7627 21.952C44.8302 21.9255 44.8977 21.8889 44.9695 21.836C45.0391 21.7851 45.1045 21.726 45.1593 21.6588C45.2163 21.5917 45.269 21.5041 45.3176 21.3962C45.3513 21.3168 45.3893 21.1845 45.4294 21.0033L45.7184 19.676H46.499L45.8956 22.4609H45.1678L45.25 22.0843C44.9315 22.3795 44.5834 22.5281 44.21 22.5281C43.9716 22.5281 43.7859 22.463 43.6509 22.3306C43.5159 22.2004 43.4463 22.0232 43.4463 21.8034C43.4463 21.7077 43.4779 21.5163 43.5391 21.2293L43.8767 19.676H43.8703Z" fill="#0088B1"/>
<path d="M46.5706 21.6812L47.3259 21.5652C47.3934 21.7199 47.4757 21.8278 47.5769 21.8909C47.6761 21.954 47.8132 21.9866 47.9841 21.9866C48.155 21.9866 48.3048 21.9479 48.4103 21.8706C48.4841 21.8176 48.5221 21.7545 48.5221 21.6792C48.5221 21.6283 48.5031 21.5835 48.4651 21.5428C48.425 21.5041 48.3174 21.4573 48.1423 21.4003C47.6719 21.2496 47.3786 21.1316 47.2668 21.044C47.0917 20.9076 47.0031 20.7285 47.0031 20.5086C47.0031 20.2887 47.0875 20.0994 47.2584 19.9386C47.4947 19.7167 47.8491 19.6047 48.3153 19.6047C48.6866 19.6047 48.9672 19.6699 49.1571 19.8022C49.3469 19.9325 49.4672 20.1116 49.5178 20.3356L48.7963 20.4557C48.7583 20.3539 48.6972 20.2786 48.6107 20.2277C48.4946 20.1605 48.3554 20.1259 48.193 20.1259C48.0305 20.1259 47.9124 20.1523 47.8406 20.2053C47.7689 20.2582 47.733 20.3172 47.733 20.3865C47.733 20.4557 47.7689 20.5147 47.8428 20.5595C47.8871 20.588 48.0347 20.6369 48.2794 20.7061C48.6592 20.8119 48.9145 20.9178 49.0431 21.0216C49.2246 21.1662 49.3153 21.3413 49.3153 21.5469C49.3153 21.8115 49.2014 22.0395 48.9693 22.235C48.7372 22.4304 48.4145 22.5261 47.9968 22.5261C47.579 22.5261 47.2584 22.4528 47.0305 22.3042C46.8027 22.1556 46.6487 21.9479 46.5664 21.6812H46.5706Z" fill="#0088B1"/>
<path d="M49.9628 20.2338L50.0831 19.676H50.4628L50.5577 19.2301L51.4522 18.711L51.2434 19.676H51.718L51.5978 20.2338H51.1189L50.8657 21.4003C50.8214 21.612 50.7982 21.7321 50.7982 21.7627C50.7982 21.8197 50.8172 21.8644 50.8552 21.897C50.8932 21.9296 50.9628 21.9459 51.0619 21.9459C51.0957 21.9459 51.1822 21.9398 51.3193 21.9276L51.197 22.4854C51.0619 22.5118 50.9248 22.524 50.7835 22.524C50.5071 22.524 50.3088 22.4732 50.1822 22.3714C50.0556 22.2696 49.9944 22.1271 49.9944 21.9459C49.9944 21.8604 50.0282 21.6629 50.0957 21.3535L50.3383 20.2338H49.9607H49.9628Z" fill="#0088B1"/>
<path d="M55.0029 20.5615C55.0029 20.7773 54.9249 20.9606 54.7687 21.1112C54.6126 21.2619 54.4228 21.3372 54.2012 21.3372C53.9797 21.3372 53.7877 21.2619 53.6316 21.1092C53.4755 20.9565 53.3975 20.7753 53.3975 20.5615C53.3975 20.3478 53.4755 20.1666 53.6316 20.0139C53.7877 19.8633 53.9776 19.7879 54.2012 19.7879C54.4249 19.7879 54.6105 19.8633 54.7687 20.0139C54.9249 20.1646 55.0029 20.3478 55.0029 20.5615Z" fill="#0088B1"/>
<path d="M58.4036 22.4609H57.5829L58.2791 19.2586H57.1104L57.2496 18.6153H60.3888L60.2495 19.2586H59.0976L58.4036 22.4609Z" fill="#0088B1"/>
<path d="M60.5238 19.676H61.2516L61.1356 20.2155C61.4077 19.8124 61.701 19.6088 62.0195 19.6088C62.1313 19.6088 62.2516 19.6353 62.3803 19.6902L62.0807 20.3071C62.0111 20.2826 61.9351 20.2704 61.855 20.2704C61.72 20.2704 61.5849 20.3193 61.4457 20.417C61.3065 20.5147 61.1989 20.645 61.1208 20.8099C61.0428 20.9728 60.9668 21.2334 60.8909 21.5876L60.701 22.4609H59.9204L60.5238 19.676Z" fill="#0088B1"/>
<path d="M63.2305 20.4659L62.4689 20.4027C62.5554 20.1544 62.7073 19.961 62.9246 19.8205C63.1419 19.68 63.4288 19.6108 63.7853 19.6108C64.1418 19.6108 64.4309 19.6821 64.6081 19.8266C64.7853 19.9712 64.8739 20.1462 64.8739 20.3559C64.8739 20.4394 64.8655 20.529 64.8507 20.6226C64.8359 20.7163 64.7811 20.9646 64.6882 21.3677C64.6123 21.6996 64.5743 21.9316 64.5743 22.066C64.5743 22.1841 64.5954 22.3164 64.6397 22.463H63.8823C63.8507 22.3612 63.8317 22.2574 63.8254 22.1474C63.7115 22.2696 63.5807 22.3632 63.4309 22.4284C63.2832 22.4935 63.1334 22.5261 62.9815 22.5261C62.7431 22.5261 62.5448 22.4508 62.3887 22.3001C62.2326 22.1495 62.1545 21.954 62.1545 21.7158C62.1545 21.4491 62.241 21.2374 62.4119 21.0786C62.5828 20.9198 62.8887 20.8242 63.3296 20.7896C63.7009 20.759 63.9499 20.7244 64.0743 20.6817C64.106 20.5758 64.1229 20.4923 64.1229 20.4292C64.1229 20.3498 64.0891 20.2806 64.0216 20.2277C63.9541 20.1727 63.8549 20.1462 63.722 20.1462C63.5828 20.1462 63.4731 20.1747 63.3908 20.2297C63.3106 20.2847 63.2558 20.3641 63.2262 20.4638L63.2305 20.4659ZM63.9731 21.1621C63.9267 21.1743 63.8634 21.1865 63.7853 21.1967C63.3929 21.2415 63.1376 21.3087 63.0195 21.3962C62.9351 21.4593 62.8908 21.5448 62.8908 21.6507C62.8908 21.7382 62.9225 21.8115 62.9879 21.8726C63.0533 21.9337 63.1397 21.9622 63.2452 21.9622C63.3634 21.9622 63.4731 21.9337 63.5786 21.8787C63.684 21.8237 63.76 21.7525 63.8127 21.667C63.8655 21.5794 63.9098 21.4451 63.9499 21.2619L63.971 21.1621H63.9731Z" fill="#0088B1"/>
<path d="M65.8402 19.676H66.5785L66.5026 20.0383C66.6882 19.8836 66.8591 19.7757 67.0195 19.7085C67.1798 19.6434 67.3486 19.6108 67.5258 19.6108C67.7621 19.6108 67.9498 19.676 68.087 19.8083C68.2241 19.9386 68.2916 20.1137 68.2916 20.3295C68.2916 20.4272 68.262 20.6124 68.2009 20.8852L67.8612 22.4609H67.0806L67.4224 20.8791C67.473 20.643 67.4984 20.5025 67.4984 20.4577C67.4984 20.362 67.4688 20.2867 67.4097 20.2317C67.3507 20.1768 67.2684 20.1483 67.1629 20.1483C67.049 20.1483 66.9224 20.1951 66.7832 20.2867C66.6439 20.3804 66.5342 20.5025 66.4541 20.6532C66.395 20.761 66.3317 20.983 66.2579 21.3168L66.011 22.4609H65.2305L65.8338 19.676H65.8402Z" fill="#0088B1"/>
<path d="M68.5259 21.6812L69.2812 21.5652C69.3487 21.7199 69.431 21.8278 69.5323 21.8909C69.6314 21.954 69.7685 21.9866 69.9394 21.9866C70.1103 21.9866 70.2601 21.9479 70.3656 21.8706C70.4394 21.8176 70.4774 21.7545 70.4774 21.6792C70.4774 21.6283 70.4584 21.5835 70.4204 21.5428C70.3803 21.5041 70.2727 21.4573 70.0976 21.4003C69.6272 21.2496 69.3339 21.1316 69.2221 21.044C69.047 20.9076 68.9584 20.7285 68.9584 20.5086C68.9584 20.2887 69.0428 20.0994 69.2137 19.9386C69.45 19.7167 69.8023 19.6047 70.2706 19.6047C70.6419 19.6047 70.9225 19.6699 71.1124 19.8022C71.3023 19.9325 71.4225 20.1116 71.4731 20.3356L70.7537 20.4557C70.7158 20.3539 70.6546 20.2786 70.5681 20.2277C70.4521 20.1605 70.3128 20.1259 70.1504 20.1259C69.9879 20.1259 69.8698 20.1523 69.7981 20.2053C69.7263 20.2582 69.6905 20.3172 69.6905 20.3865C69.6905 20.4557 69.7263 20.5147 69.7981 20.5595C69.8424 20.588 69.9901 20.6369 70.2348 20.7061C70.6145 20.8119 70.8698 20.9178 70.9985 21.0216C71.1799 21.1662 71.2706 21.3413 71.2706 21.5469C71.2706 21.8115 71.1546 22.0395 70.9246 22.235C70.6947 22.4304 70.3698 22.5261 69.9521 22.5261C69.5344 22.5261 69.2137 22.4528 68.9858 22.3042C68.758 22.1556 68.604 21.9479 68.5217 21.6812H68.5259Z" fill="#0088B1"/>
<path d="M72.3 19.676H73.0383L72.975 19.961C73.1333 19.8348 73.2809 19.7452 73.4181 19.6902C73.5552 19.6353 73.7029 19.6088 73.8611 19.6088C74.1628 19.6088 74.4075 19.7085 74.591 19.9101C74.7746 20.1116 74.8674 20.4109 74.8674 20.8099C74.8674 21.3127 74.7092 21.7362 74.3927 22.0823C74.1206 22.3775 73.7999 22.5261 73.4286 22.5261C73.0573 22.5261 72.7578 22.3775 72.5616 22.0782L72.2493 23.5236H71.4688L72.3 19.676ZM72.7704 21.272C72.7704 21.4899 72.8253 21.6568 72.935 21.7769C73.0447 21.897 73.1734 21.9561 73.3231 21.9561C73.4518 21.9561 73.5763 21.9113 73.6944 21.8217C73.8147 21.7321 73.9138 21.5815 73.9919 21.3738C74.07 21.1662 74.11 20.9707 74.11 20.7936C74.11 20.586 74.0573 20.4251 73.956 20.3152C73.8527 20.2053 73.7219 20.1483 73.5615 20.1483C73.4139 20.1483 73.2767 20.1992 73.1544 20.301C73.032 20.4027 72.9371 20.5534 72.8696 20.7529C72.8021 20.9524 72.7683 21.1255 72.7683 21.2741L72.7704 21.272Z" fill="#0088B1"/>
<path d="M76.2219 20.4659L75.4603 20.4027C75.5468 20.1544 75.6987 19.961 75.916 19.8205C76.1333 19.68 76.4202 19.6108 76.7768 19.6108C77.1333 19.6108 77.4223 19.6821 77.5995 19.8266C77.7767 19.9712 77.8653 20.1462 77.8653 20.3559C77.8653 20.4394 77.8569 20.529 77.8421 20.6226C77.8274 20.7163 77.7725 20.9646 77.6797 21.3677C77.6038 21.6996 77.5658 21.9316 77.5658 22.066C77.5658 22.1841 77.5869 22.3164 77.6312 22.463H76.8738C76.8422 22.3612 76.8232 22.2574 76.8169 22.1474C76.7029 22.2696 76.5721 22.3632 76.4223 22.4284C76.2747 22.4935 76.1249 22.5261 75.973 22.5261C75.7346 22.5261 75.5363 22.4508 75.3802 22.3001C75.2241 22.1495 75.146 21.954 75.146 21.7158C75.146 21.4491 75.2325 21.2374 75.4034 21.0786C75.5743 20.9198 75.8802 20.8242 76.3211 20.7896C76.6924 20.759 76.9413 20.7244 77.0658 20.6817C77.0974 20.5758 77.1143 20.4923 77.1143 20.4292C77.1143 20.3498 77.0806 20.2806 77.013 20.2277C76.9455 20.1727 76.8464 20.1462 76.7135 20.1462C76.5742 20.1462 76.4645 20.1747 76.3823 20.2297C76.3021 20.2847 76.2472 20.3641 76.2177 20.4638L76.2219 20.4659ZM76.9645 21.1621C76.9181 21.1743 76.8548 21.1865 76.7768 21.1967C76.3844 21.2415 76.1291 21.3087 76.011 21.3962C75.9266 21.4593 75.8823 21.5448 75.8823 21.6507C75.8823 21.7382 75.9139 21.8115 75.9793 21.8726C76.0447 21.9337 76.1312 21.9622 76.2367 21.9622C76.3548 21.9622 76.4645 21.9337 76.57 21.8787C76.6755 21.8237 76.7514 21.7525 76.8042 21.667C76.8569 21.5794 76.9012 21.4451 76.9413 21.2619L76.9624 21.1621H76.9645Z" fill="#0088B1"/>
<path d="M78.7767 19.676H79.5045L79.3885 20.2155C79.6606 19.8124 79.9539 19.6088 80.2724 19.6088C80.3843 19.6088 80.5045 19.6353 80.6332 19.6902L80.3336 20.3071C80.264 20.2826 80.1881 20.2704 80.1079 20.2704C79.9729 20.2704 79.8379 20.3193 79.6986 20.417C79.5594 20.5147 79.4518 20.645 79.3737 20.8099C79.2957 20.9728 79.2197 21.2334 79.1438 21.5876L78.9539 22.4609H78.1733L78.7767 19.676Z" fill="#0088B1"/>
<path d="M83.1943 21.3026H81.2365C81.2365 21.3331 81.2344 21.3555 81.2344 21.3698C81.2344 21.555 81.2893 21.7057 81.399 21.8176C81.5087 21.9316 81.6416 21.9886 81.7998 21.9886C82.0593 21.9886 82.2618 21.8583 82.4053 21.5998L83.1036 21.7118C82.9686 21.9825 82.7871 22.1861 82.5593 22.3225C82.3315 22.4589 82.0762 22.5261 81.7935 22.5261C81.4053 22.5261 81.091 22.408 80.8484 22.1698C80.6058 21.9337 80.4834 21.6202 80.4834 21.2293C80.4834 20.8384 80.5931 20.5086 80.8125 20.2114C81.1121 19.8083 81.5382 19.6088 82.0931 19.6088C82.4454 19.6088 82.7281 19.7146 82.9348 19.9243C83.1437 20.1361 83.2471 20.4292 83.2471 20.8099C83.2471 20.9911 83.2281 21.156 83.1922 21.3005L83.1943 21.3026ZM82.5361 20.8425C82.5361 20.8099 82.5382 20.7834 82.5382 20.7672C82.5382 20.5615 82.4897 20.4068 82.3948 20.303C82.2998 20.1992 82.169 20.1483 82.0087 20.1483C81.8484 20.1483 81.7028 20.2073 81.5762 20.3234C81.4475 20.4414 81.361 20.6145 81.3167 20.8425H82.5361Z" fill="#0088B1"/>
<path d="M84.0931 19.676H84.8315L84.7555 20.0383C84.9412 19.8836 85.1121 19.7757 85.2724 19.7085C85.4327 19.6434 85.6015 19.6108 85.7787 19.6108C86.015 19.6108 86.2028 19.676 86.3399 19.8083C86.477 19.9386 86.5445 20.1137 86.5445 20.3295C86.5445 20.4272 86.515 20.6124 86.4538 20.8852L86.1141 22.4609H85.3336L85.6753 20.8791C85.726 20.643 85.7513 20.5025 85.7513 20.4577C85.7513 20.362 85.7218 20.2867 85.6627 20.2317C85.6036 20.1768 85.5213 20.1483 85.4158 20.1483C85.3019 20.1483 85.1753 20.1951 85.0361 20.2867C84.8969 20.3804 84.7872 20.5025 84.707 20.6532C84.6479 20.761 84.5846 20.983 84.5108 21.3168L84.264 22.4609H83.4834L84.0868 19.676H84.0931Z" fill="#0088B1"/>
<path d="M88.8355 21.4125L89.5928 21.5306C89.4684 21.8563 89.2827 22.1026 89.038 22.2736C88.7933 22.4426 88.5106 22.5281 88.1878 22.5281C87.8207 22.5281 87.5275 22.4223 87.3123 22.2105C87.0971 21.9988 86.9895 21.7077 86.9895 21.3372C86.9895 21.0338 87.0549 20.7488 87.1857 20.4801C87.3165 20.2114 87.5127 19.9997 87.7764 19.8449C88.0401 19.6902 88.327 19.6129 88.6414 19.6129C88.981 19.6129 89.2532 19.6984 89.4578 19.8694C89.6624 20.0404 89.7743 20.2663 89.7996 20.5453L89.057 20.6206C89.038 20.4659 88.9895 20.3498 88.9093 20.2765C88.8291 20.2032 88.7236 20.1666 88.5928 20.1666C88.4431 20.1666 88.3017 20.2216 88.1709 20.3295C88.0401 20.4374 87.941 20.6002 87.8713 20.816C87.8017 21.0318 87.7659 21.2334 87.7659 21.4227C87.7659 21.5876 87.8081 21.7138 87.8903 21.8034C87.9726 21.8929 88.0781 21.9377 88.2026 21.9377C88.327 21.9377 88.4473 21.895 88.5633 21.8074C88.6793 21.7199 88.7701 21.5896 88.8355 21.4145V21.4125Z" fill="#0088B1"/>
<path d="M90.2173 19.676H90.9937L91.1899 21.0644C91.2384 21.4206 91.2658 21.6711 91.2722 21.8136C91.3734 21.5285 91.5127 21.2272 91.6899 20.9117L92.3797 19.676H93.2067L91.424 22.7337C91.2764 22.9882 91.1624 23.1653 91.0781 23.2671C90.9937 23.3689 90.8924 23.4483 90.7743 23.5053C90.6561 23.5623 90.5127 23.5928 90.346 23.5928C90.1793 23.5928 89.9958 23.5643 89.7891 23.5094L89.8566 22.9475C89.9515 22.974 90.0422 22.9862 90.1308 22.9862C90.3692 22.9862 90.5675 22.8111 90.7194 22.4609L90.2173 19.676Z" fill="#0088B1"/>
<path d="M96.4513 20.5615C96.4513 20.7773 96.3733 20.9606 96.215 21.1112C96.0589 21.2619 95.869 21.3372 95.6475 21.3372C95.426 21.3372 95.234 21.2619 95.0779 21.1092C94.9218 20.9565 94.8438 20.7753 94.8438 20.5615C94.8438 20.3478 94.9218 20.1666 95.0779 20.0139C95.234 19.8633 95.4239 19.7879 95.6475 19.7879C95.8712 19.7879 96.0568 19.8633 96.215 20.0139C96.3711 20.1646 96.4513 20.3478 96.4513 20.5615Z" fill="#0088B1"/>
<path d="M101.004 21.0766L101.831 21.1967C101.671 21.6283 101.428 21.9581 101.105 22.1861C100.783 22.4141 100.405 22.5281 99.9725 22.5281C99.4852 22.5281 99.1034 22.3856 98.8291 22.1026C98.5549 21.8197 98.4177 21.4084 98.4177 20.871C98.4177 20.4333 98.5105 20.0343 98.6941 19.6719C98.8776 19.3095 99.1329 19.0306 99.4599 18.8393C99.7869 18.6479 100.141 18.5502 100.525 18.5502C100.956 18.5502 101.306 18.6621 101.572 18.884C101.837 19.108 101.994 19.4113 102.042 19.7961L101.257 19.8694C101.213 19.6454 101.131 19.4826 101.006 19.3828C100.882 19.2831 100.717 19.2322 100.511 19.2322C100.285 19.2322 100.072 19.2993 99.8755 19.4317C99.6793 19.564 99.5211 19.7717 99.4029 20.0546C99.2848 20.3376 99.2257 20.6185 99.2257 20.9015C99.2257 21.2089 99.3017 21.4471 99.4557 21.614C99.6097 21.781 99.7996 21.8665 100.027 21.8665C100.238 21.8665 100.435 21.7993 100.61 21.667C100.787 21.5347 100.918 21.3372 101.006 21.0766H101.004Z" fill="#0088B1"/>
<path d="M103.234 20.4659L102.472 20.4027C102.559 20.1544 102.711 19.961 102.928 19.8205C103.145 19.68 103.432 19.6108 103.789 19.6108C104.145 19.6108 104.434 19.6821 104.611 19.8266C104.789 19.9712 104.877 20.1462 104.877 20.3559C104.877 20.4394 104.869 20.529 104.854 20.6226C104.839 20.7163 104.784 20.9646 104.692 21.3677C104.616 21.6996 104.578 21.9316 104.578 22.066C104.578 22.1841 104.599 22.3164 104.643 22.463H103.886C103.854 22.3612 103.835 22.2574 103.829 22.1474C103.715 22.2696 103.584 22.3632 103.434 22.4284C103.287 22.4935 103.137 22.5261 102.985 22.5261C102.747 22.5261 102.548 22.4508 102.392 22.3001C102.236 22.1495 102.158 21.954 102.158 21.7158C102.158 21.4491 102.244 21.2374 102.415 21.0786C102.586 20.9198 102.892 20.8242 103.333 20.7896C103.704 20.759 103.953 20.7244 104.078 20.6817C104.109 20.5758 104.126 20.4923 104.126 20.4292C104.126 20.3498 104.093 20.2806 104.025 20.2277C103.957 20.1727 103.858 20.1462 103.725 20.1462C103.586 20.1462 103.476 20.1747 103.394 20.2297C103.314 20.2847 103.259 20.3641 103.23 20.4638L103.234 20.4659ZM103.974 21.1621C103.928 21.1743 103.865 21.1865 103.787 21.1967C103.394 21.2415 103.139 21.3087 103.021 21.3962C102.936 21.4593 102.892 21.5448 102.892 21.6507C102.892 21.7382 102.924 21.8115 102.989 21.8726C103.055 21.9337 103.141 21.9622 103.247 21.9622C103.365 21.9622 103.474 21.9337 103.58 21.8787C103.685 21.8237 103.761 21.7525 103.814 21.667C103.867 21.5794 103.911 21.4451 103.951 21.2619L103.972 21.1621H103.974Z" fill="#0088B1"/>
<path d="M105.789 19.676H106.517L106.4 20.2155C106.673 19.8124 106.966 19.6088 107.284 19.6088C107.396 19.6088 107.516 19.6353 107.645 19.6902L107.346 20.3071C107.276 20.2826 107.2 20.2704 107.12 20.2704C106.985 20.2704 106.85 20.3193 106.711 20.417C106.571 20.5147 106.464 20.645 106.386 20.8099C106.308 20.9728 106.232 21.2334 106.156 21.5876L105.966 22.4609H105.185L105.789 19.676Z" fill="#0088B1"/>
<path d="M110.204 21.3026H108.247C108.247 21.3331 108.244 21.3555 108.244 21.3698C108.244 21.555 108.299 21.7057 108.409 21.8176C108.519 21.9316 108.652 21.9886 108.81 21.9886C109.069 21.9886 109.272 21.8583 109.415 21.5998L110.114 21.7118C109.979 21.9825 109.797 22.1861 109.569 22.3225C109.341 22.4589 109.086 22.5261 108.804 22.5261C108.415 22.5261 108.101 22.408 107.858 22.1698C107.616 21.9337 107.493 21.6202 107.493 21.2293C107.493 20.8384 107.603 20.5086 107.823 20.2114C108.122 19.8083 108.548 19.6088 109.103 19.6088C109.455 19.6088 109.738 19.7146 109.945 19.9243C110.154 20.1361 110.257 20.4292 110.257 20.8099C110.257 20.9911 110.238 21.156 110.202 21.3005L110.204 21.3026ZM109.548 20.8425C109.548 20.8099 109.55 20.7834 109.55 20.7672C109.55 20.5615 109.502 20.4068 109.407 20.303C109.312 20.1992 109.181 20.1483 109.021 20.1483C108.86 20.1483 108.715 20.2073 108.588 20.3234C108.46 20.4414 108.373 20.6145 108.329 20.8425H109.548Z" fill="#0088B1"/>
<path d="M12.2339 8.49538C8.8859 6.12368 4.86489 4.62126 0.5 4.31182L6.48511 14.3524C8.02305 12.0702 9.97871 10.0935 12.236 8.49538H12.2339Z" fill="url(#paint0_linear_173_652)"/>
<path d="M17.9849 14.3524L23.97 4.31182C19.6051 4.62126 15.5841 6.12368 12.2361 8.49538C14.4934 10.0935 16.4491 12.0723 17.987 14.3524H17.9849Z" fill="url(#paint1_linear_173_652)"/>
<path d="M6.48511 14.3524L12.236 24L17.987 14.3524C16.449 12.0702 14.4934 10.0935 12.236 8.49538C9.97871 10.0935 8.02305 12.0723 6.48511 14.3524Z" fill="url(#paint2_linear_173_652)"/>
<path d="M12.2339 5.84273C13.4736 5.84273 14.4786 4.53479 14.4786 2.92137C14.4786 1.30794 13.4736 0 12.2339 0C10.9942 0 9.98926 1.30794 9.98926 2.92137C9.98926 4.53479 10.9942 5.84273 12.2339 5.84273Z" fill="url(#paint3_linear_173_652)"/>
<defs>
<linearGradient id="paint0_linear_173_652" x1="0.5" y1="9.33209" x2="12.2339" y2="9.33209" gradientUnits="userSpaceOnUse">
<stop stop-color="#31B0CD"/>
<stop offset="1" stop-color="#21B685"/>
</linearGradient>
<linearGradient id="paint1_linear_173_652" x1="12.234" y1="9.33209" x2="23.9679" y2="9.33209" gradientUnits="userSpaceOnUse">
<stop stop-color="#31B0CD"/>
<stop offset="1" stop-color="#81D3EB"/>
</linearGradient>
<linearGradient id="paint2_linear_173_652" x1="12.2339" y1="9.46238" x2="12.2339" y2="24.3074" gradientUnits="userSpaceOnUse">
<stop stop-color="#0077C0"/>
<stop offset="1" stop-color="#191057"/>
</linearGradient>
<linearGradient id="paint3_linear_173_652" x1="9.98926" y1="2.92137" x2="14.4786" y2="2.92137" gradientUnits="userSpaceOnUse">
<stop stop-color="#31B0CD"/>
<stop offset="1" stop-color="#81D3EB"/>
</linearGradient>
</defs>
</svg>
